<svg xmlns="http://www.w3.org/2000/svg"
 viewBox="0 0 2715.000000 1146.000000"
 preserveAspectRatio="xMidYMid meet">
<metadata>
Created by potrace 1.14, written by Peter Selinger 2001-2017
</metadata>
<g transform="translate(0.000000,1146.000000) scale(0.100000,-0.100000)"
fill="#000000" stroke="none">
<path d="M15970 11453 c-92 -7 -250 -35 -357 -63 -723 -189 -1338 -735 -1666
-1480 -113 -257 -186 -526 -222 -822 -19 -157 -14 -594 9 -738 87 -540 288
-997 614 -1394 340 -414 792 -707 1282 -831 189 -48 281 -58 515 -59 249 -1
380 17 598 80 877 255 1577 1046 1781 2011 71 337 82 702 31 1038 -111 725
-498 1381 -1060 1800 -457 340 -986 499 -1525 458z m390 -109 c214 -40 422
-156 600 -333 368 -367 597 -923 691 -1681 24 -187 34 -694 19 -883 -62 -759
-277 -1396 -611 -1812 -130 -162 -338 -327 -495 -394 -248 -106 -517 -114
-768 -24 -251 90 -489 297 -683 595 -58 90 -141 245 -191 358 -92 208 -198
570 -241 825 -125 746 -68 1564 154 2180 58 162 183 419 265 545 161 245 356
428 574 534 215 106 446 136 686 90z"/>
<path d="M5906 11409 c-281 -22 -579 -102 -763 -205 -104 -58 -203 -134 -304
-234 -159 -156 -257 -320 -311 -517 -31 -112 -30 -364 1 -511 104 -493 435
-919 916 -1177 747 -402 1047 -602 1330 -890 278 -283 375 -497 375 -829 0
-401 -177 -738 -471 -900 -115 -63 -221 -87 -389 -87 -242 0 -465 58 -700 183
-148 79 -235 144 -361 268 -257 256 -404 573 -442 953 l-13 122 -49 0 -49 0
-32 -355 c-18 -195 -42 -463 -53 -595 -12 -132 -23 -261 -27 -286 l-5 -46 118
-45 c365 -141 760 -240 1138 -284 204 -24 573 -24 740 0 425 61 776 206 972
403 269 269 381 729 288 1189 -105 517 -399 908 -976 1297 -160 107 -339 214
-619 367 -414 226 -552 319 -715 484 -160 161 -257 325 -316 536 -21 75 -24
106 -24 260 0 152 3 186 23 259 72 262 206 419 419 490 350 117 868 4 1228
-268 129 -97 288 -269 370 -401 126 -201 221 -490 241 -727 l7 -83 52 0 51 0
23 283 c12 155 24 298 27 317 6 48 54 640 54 666 0 18 -20 30 -122 72 -531
218 -1151 329 -1632 291z"/>
<path d="M8280 11275 l0 -45 40 0 c72 0 193 -30 266 -65 122 -59 204 -160 241
-296 17 -60 18 -188 18 -2184 0 -2031 -1 -2123 -18 -2180 -52 -166 -144 -262
-301 -315 -49 -16 -188 -39 -238 -40 -5 0 -8 -20 -8 -45 l0 -45 930 0 930 0 0
45 c0 40 -3 45 -22 46 -34 0 -104 8 -180 20 -133 21 -248 101 -298 206 -57
120 -54 60 -57 1206 l-4 1057 1206 0 1206 0 -4 -1047 c-3 -946 -5 -1054 -20
-1111 -62 -228 -202 -319 -514 -331 -9 -1 -13 -17 -13 -46 l0 -45 920 0 920 0
0 45 c0 25 -3 45 -7 45 -238 8 -420 104 -498 263 -57 118 -55 9 -55 2267 0
1229 4 2101 10 2139 20 141 81 245 185 316 73 49 142 73 258 88 l87 11 0 43 0
43 -920 0 -920 0 0 -44 0 -43 88 -6 c258 -16 392 -109 456 -316 20 -64 20 -92
24 -1118 l3 -1053 -1206 0 -1205 0 0 1023 c1 630 5 1043 11 1077 29 161 92
262 199 319 80 43 142 59 258 67 l92 7 0 43 0 44 -930 0 -930 0 0 -45z"/>
<path d="M18730 11272 l0 -49 118 -6 c272 -14 419 -108 494 -317 l23 -65 3
-2115 2 -2115 73 -47 c39 -25 225 -146 411 -267 187 -121 341 -219 343 -218 2
2 -10 28 -26 58 -68 125 -64 75 -68 1117 l-4 942 398 1 c219 0 407 2 418 4 11
1 63 6 115 9 330 23 689 125 921 263 415 247 631 598 690 1123 26 234 -7 566
-77 762 -178 498 -599 808 -1274 936 l-135 26 -1212 3 -1213 4 0 -49z m2323
-72 c248 -52 415 -157 530 -333 62 -93 96 -174 132 -309 46 -176 58 -313 59
-683 1 -376 -8 -473 -65 -693 -113 -440 -390 -757 -764 -874 -66 -21 -93 -22
-457 -26 l-388 -3 0 1228 c0 1323 -1 1291 53 1417 70 168 196 267 376 296 98
16 413 4 524 -20z"/>
<path d="M2270 5393 c-542 -51 -1057 -306 -1466 -725 -341 -349 -581 -782
-704 -1268 -134 -536 -111 -1101 67 -1628 48 -143 91 -241 172 -397 138 -265
275 -450 490 -665 227 -227 395 -348 666 -481 252 -123 493 -192 759 -218 656
-64 1311 184 1817 689 228 227 389 450 524 725 168 342 249 631 291 1035 12
115 6 430 -10 568 -64 538 -271 1038 -602 1452 -85 106 -272 294 -385 387
-342 283 -791 476 -1214 522 -77 8 -332 11 -405 4z m419 -113 c327 -78 586
-275 813 -619 320 -484 495 -1207 482 -1996 -11 -743 -176 -1399 -472 -1880
-233 -378 -523 -602 -877 -676 -76 -16 -281 -16 -364 0 -390 75 -723 368 -971
855 -82 161 -117 244 -175 421 -134 408 -197 819 -199 1300 -1 332 6 461 40
695 99 690 332 1228 681 1574 196 193 433 313 678 344 102 13 266 5 364 -18z"/>
<path d="M5060 5200 l0 -60 33 0 c47 0 147 -26 210 -54 167 -73 352 -246 515
-478 l103 -147 -4 -1758 c-3 -1911 0 -1801 -58 -1988 -104 -342 -369 -564
-721 -607 l-98 -12 0 -48 0 -48 925 0 925 0 0 49 0 49 -67 7 c-150 16 -270 60
-401 147 -200 134 -331 345 -389 629 -15 77 -17 224 -20 1774 l-4 1690 48 -66
c27 -36 732 -1013 1568 -2172 l1520 -2107 122 0 123 0 0 2103 c0 1465 3 2129
11 2192 49 404 252 686 585 814 64 25 190 51 244 51 l40 0 0 50 0 50 -930 0
-930 0 0 -50 0 -50 50 0 c72 0 192 -26 280 -61 245 -98 423 -295 504 -559 58
-188 57 -158 54 -1800 l-3 -1505 -1480 2012 -1480 2012 -637 0 -638 1 0 -60z"/>
<path d="M11250 5214 c16 -27 40 -76 52 -109 l23 -60 3 -2273 c2 -2474 5
-2338 -52 -2450 -35 -67 -72 -106 -139 -146 -74 -44 -164 -64 -317 -73 l-120
-6 0 -49 0 -48 1959 0 1958 0 12 113 c6 61 32 315 57 562 25 248 56 548 68
668 l22 217 -75 0 -76 0 -33 -118 c-81 -287 -215 -560 -365 -747 -278 -346
-641 -532 -1138 -585 -53 -5 -188 -12 -300 -14 -240 -5 -317 5 -425 59 -87 42
-148 101 -191 181 -67 125 -63 -6 -63 2297 l0 2084 -406 249 c-223 137 -424
260 -445 273 l-40 23 31 -48z"/>
<path d="M15668 5213 c40 -67 61 -135 72 -234 14 -116 13 -4390 0 -4484 -35
-240 -160 -367 -385 -391 -33 -3 -69 -8 -80 -9 -11 -2 -30 -4 -42 -4 -20 -1
-23 -6 -23 -46 l0 -45 910 0 910 0 0 45 c0 29 -4 45 -12 45 -259 9 -408 82
-480 236 -60 128 -57 28 -58 2305 l0 2087 -276 178 c-322 210 -534 347 -552
358 -7 4 1 -15 16 -41z"/>
<path d="M17490 5200 l0 -60 33 0 c51 0 176 -38 247 -76 170 -90 312 -228 483
-472 l87 -123 0 -1731 c0 -1518 -2 -1743 -16 -1836 -67 -457 -345 -744 -766
-795 l-98 -11 0 -48 0 -48 930 0 930 0 0 49 0 48 -69 7 c-87 8 -224 47 -304
87 -220 111 -371 296 -451 549 -58 181 -56 131 -54 1934 l3 1656 1560 -2162
1560 -2163 123 -3 122 -3 0 2068 c1 1137 3 2095 6 2128 20 260 74 433 184 595
137 201 381 347 616 367 l74 6 0 48 0 49 -931 0 -930 0 3 -47 3 -48 80 -8
c357 -34 643 -265 749 -605 62 -200 59 -115 63 -1642 2 -767 2 -1460 1 -1539
l-3 -144 -1485 2016 -1484 2017 -633 0 -633 0 0 -60z"/>
<path d="M23120 5216 l0 -43 96 -7 c295 -22 473 -143 536 -366 10 -36 13 -483
15 -2130 1 -1257 -2 -2111 -8 -2150 -11 -80 -64 -191 -116 -244 -90 -93 -231
-156 -383 -172 -30 -3 -64 -8 -75 -9 -11 -2 -30 -4 -42 -4 -20 -1 -23 -6 -23
-46 l0 -45 1958 2 1957 3 6 96 c4 52 9 140 13 195 4 54 8 119 11 144 2 25 7
90 10 145 5 93 8 136 20 290 2 33 7 103 11 155 3 52 11 173 18 268 6 95 9 175
7 178 -2 2 -28 4 -56 4 l-52 0 -12 -92 c-80 -608 -416 -1043 -936 -1211 -221
-71 -361 -86 -790 -83 -287 2 -316 4 -383 25 -150 44 -252 114 -318 217 -67
104 -64 49 -66 1212 l-3 1052 178 0 c249 0 392 -24 558 -95 119 -52 212 -116
314 -220 142 -144 221 -307 247 -508 l12 -97 53 0 53 0 0 975 0 975 -53 0 -53
0 -12 -92 c-16 -128 -36 -199 -82 -296 -95 -200 -236 -340 -441 -436 -171 -81
-305 -105 -589 -106 l-185 0 2 1032 c2 656 6 1051 13 1081 38 180 177 307 375
342 98 17 529 20 673 4 400 -43 733 -211 962 -484 156 -186 268 -411 325 -657
l19 -78 54 0 54 0 -6 83 c-4 45 -9 114 -12 152 -2 39 -15 228 -29 420 -14 193
-27 382 -30 420 -2 39 -7 109 -11 158 l-6 87 -1889 0 -1889 0 0 -44z"/>
</g>
</svg>
