<?xml version="1.0" standalone="no"?>
<!DOCTYPE svg PUBLIC "-//W3C//DTD SVG 20010904//EN"
 "http://www.w3.org/TR/2001/REC-SVG-20010904/DTD/svg10.dtd">
<svg version="1.0" xmlns="http://www.w3.org/2000/svg" viewBox="0 0 905.000000 382.000000"
 preserveAspectRatio="xMidYMid meet">
<metadata>
Created by potrace 1.14, written by Peter Selinger 2001-2017
</metadata>
<g transform="translate(0.000000,382.000000) scale(0.100000,-0.100000)"
fill="#000000" stroke="none">
<path d="M5235 3804 c-92 -19 -254 -99 -335 -167 -126 -104 -225 -250 -278
-409 -42 -128 -55 -221 -49 -353 30 -652 674 -1058 1185 -747 100 60 160 112
228 197 81 100 146 231 180 360 37 141 38 326 1 465 -48 186 -127 321 -261
447 -45 43 -108 93 -139 112 -167 99 -351 132 -532 95z m292 -49 c76 -34 134
-84 187 -158 57 -81 81 -129 116 -236 47 -146 63 -279 57 -481 -10 -319 -83
-539 -229 -695 -174 -186 -419 -175 -579 27 -81 103 -149 268 -185 454 -27
135 -24 415 5 551 66 313 210 514 404 564 56 14 163 2 224 -26z"/>
<path d="M1940 3800 c-198 -24 -341 -115 -409 -260 -22 -47 -26 -68 -25 -145
0 -109 23 -180 90 -278 64 -93 125 -143 278 -228 282 -156 418 -268 477 -393
30 -63 31 -72 27 -164 -3 -89 -7 -103 -39 -162 -73 -133 -195 -179 -358 -135
-208 55 -356 227 -386 448 -8 61 -32 64 -39 5 -3 -24 -13 -119 -21 -212 -13
-137 -13 -171 -3 -178 27 -17 227 -77 313 -94 131 -25 326 -23 430 5 158 42
245 102 295 204 44 92 57 190 36 297 -42 224 -174 366 -519 558 -162 91 -201
117 -260 181 -116 124 -141 313 -56 431 104 144 399 105 568 -75 82 -88 141
-217 141 -312 0 -25 4 -33 19 -33 21 0 22 9 42 263 8 107 9 161 2 168 -17 17
-206 77 -294 93 -111 20 -229 26 -309 16z"/>
<path d="M2767 3773 c-18 -17 -3 -31 39 -36 58 -6 93 -31 122 -87 l22 -44 0
-711 c0 -679 -1 -712 -20 -752 -22 -49 -66 -80 -127 -89 -27 -4 -43 -11 -43
-20 0 -12 52 -14 310 -14 255 0 310 2 310 14 0 8 -17 16 -45 19 -65 9 -100 31
-121 74 -17 35 -19 69 -22 396 l-3 357 400 0 401 0 0 -361 c0 -313 -2 -366
-16 -395 -19 -40 -55 -62 -119 -71 -28 -3 -45 -11 -45 -19 0 -12 55 -14 310
-14 258 0 310 2 310 14 0 9 -16 16 -43 20 -63 10 -105 40 -128 91 -19 42 -19
68 -17 769 3 714 3 725 24 752 31 43 67 65 112 71 32 4 42 10 42 24 0 18 -14
19 -305 19 -298 0 -305 0 -305 -20 0 -16 7 -20 36 -20 49 0 103 -27 125 -64
18 -29 19 -57 19 -399 l0 -367 -397 2 -398 3 0 360 c0 344 1 362 20 395 25 42
76 70 128 70 31 0 38 3 35 18 -3 16 -27 17 -304 20 -165 1 -303 -1 -307 -5z"/>
<path d="M6246 3771 c-12 -19 2 -28 55 -34 64 -8 108 -33 134 -77 20 -34 20
-52 23 -748 l3 -713 129 -85 c72 -46 132 -84 134 -84 2 0 -2 17 -10 38 -10 28
-13 115 -14 348 l0 312 188 5 c272 7 393 43 511 153 99 91 151 220 151 374 0
207 -88 354 -264 441 -136 67 -170 71 -627 76 -291 4 -408 2 -413 -6z m846
-64 c116 -57 156 -147 165 -367 12 -289 -59 -463 -222 -548 -46 -24 -62 -27
-193 -30 l-143 -4 3 434 3 434 28 43 c41 61 72 72 197 69 92 -3 112 -7 162
-31z"/>
<path d="M674 1785 c-141 -30 -259 -95 -376 -204 -254 -238 -351 -593 -258
-939 113 -416 503 -694 887 -632 315 50 582 307 675 650 19 71 23 110 23 240
0 174 -18 262 -79 396 -93 200 -268 374 -454 449 -127 52 -292 68 -418 40z
m302 -55 c120 -59 228 -202 288 -385 111 -332 74 -802 -85 -1072 -48 -82 -142
-174 -214 -209 -52 -25 -71 -29 -145 -29 -76 0 -93 4 -152 33 -169 83 -297
312 -343 612 -17 112 -19 326 -4 437 47 345 205 589 416 643 68 17 170 4 239
-30z"/>
<path d="M1690 1736 c0 -19 6 -24 37 -29 55 -9 137 -71 193 -146 l50 -66 -2
-620 c-3 -606 -3 -621 -24 -666 -12 -25 -36 -62 -55 -84 -35 -39 -118 -85
-156 -85 -32 0 -53 -10 -53 -26 0 -12 52 -14 310 -14 267 0 310 2 310 15 0 8
-12 17 -27 20 -138 28 -202 82 -249 211 -17 45 -19 96 -21 624 l-3 575 22 -27
c13 -15 248 -340 523 -722 l500 -695 43 0 42 -1 0 710 c0 732 2 775 41 852 39
77 125 141 208 154 31 5 41 11 41 25 0 19 -12 19 -307 17 -273 -3 -308 -5
-311 -19 -2 -12 8 -18 42 -22 56 -8 132 -46 168 -84 15 -15 39 -55 55 -88 l28
-60 3 -430 c2 -236 2 -477 0 -535 l-3 -104 -495 672 -494 672 -208 0 -208 0 0
-24z"/>
<path d="M5830 1736 c0 -20 6 -24 39 -30 56 -9 128 -63 189 -141 l53 -68 -3
-621 -3 -621 -24 -52 c-25 -56 -93 -127 -138 -144 -15 -5 -49 -15 -75 -20 -30
-7 -48 -16 -48 -25 0 -12 49 -14 310 -14 267 0 310 2 310 15 0 8 -12 17 -27
20 -121 25 -173 62 -223 159 l-35 69 -2 586 -2 586 22 -28 c12 -16 245 -337
517 -715 l496 -687 42 -3 41 -3 3 738 c4 839 -1 788 90 888 48 53 127 95 178
95 13 0 20 7 20 20 0 20 -5 20 -307 18 -258 -3 -308 -5 -308 -17 0 -9 21 -19
59 -28 98 -22 165 -77 209 -172 22 -45 22 -57 24 -586 2 -432 0 -537 -10 -524
-6 8 -230 311 -496 672 l-484 657 -208 0 -209 0 0 -24z"/>
<path d="M7710 1740 c0 -16 7 -20 38 -20 47 0 119 -36 146 -73 21 -28 21 -40
24 -758 2 -710 2 -730 -17 -768 -23 -43 -77 -76 -148 -87 -27 -4 -43 -12 -43
-20 0 -12 106 -14 650 -14 358 0 650 1 651 3 0 1 8 111 17 245 16 232 16 242
-1 242 -20 0 -20 0 -36 -85 -25 -134 -119 -263 -231 -318 -88 -43 -186 -59
-335 -55 -116 3 -135 6 -172 27 -29 16 -50 39 -63 66 -19 39 -20 62 -20 395
l0 353 89 -6 c110 -8 184 -35 244 -87 47 -42 97 -127 97 -166 0 -33 10 -54 26
-54 12 0 14 54 14 325 0 280 -2 325 -15 325 -8 0 -17 -12 -20 -27 -28 -133
-69 -192 -167 -242 -60 -30 -78 -35 -168 -39 l-100 -5 0 349 c0 335 1 349 21
392 33 67 73 82 229 82 143 0 213 -14 301 -62 105 -55 199 -179 230 -302 8
-34 16 -46 30 -46 16 0 17 7 12 68 -2 37 -10 137 -16 222 l-12 155 -627 3
c-623 2 -628 2 -628 -18z"/>
<path d="M5220 1746 c0 -2 7 -20 15 -39 13 -31 15 -142 14 -794 0 -581 -3
-766 -13 -793 -16 -43 -63 -77 -122 -86 -28 -4 -44 -11 -44 -20 0 -12 52 -14
305 -14 251 0 305 2 305 14 0 8 -17 16 -45 19 -65 9 -100 31 -121 74 -18 36
-19 76 -22 753 l-3 715 -134 87 c-74 48 -135 86 -135 84z"/>
<path d="M3766 1699 c12 -34 14 -168 12 -802 -3 -696 -4 -765 -20 -793 -20
-37 -64 -59 -135 -69 -36 -5 -53 -12 -53 -21 0 -12 98 -14 650 -14 358 0 650
1 651 3 0 1 13 118 28 259 l27 258 -26 0 c-22 0 -28 -6 -38 -47 -27 -100 -92
-215 -161 -284 -112 -111 -226 -152 -431 -153 -113 -1 -129 1 -161 21 -67 42
-63 5 -69 797 l-5 719 -135 83 c-74 46 -138 83 -141 84 -4 0 0 -18 7 -41z"/>
</g>
</svg>
