<svg width="176" height="59" viewBox="0 0 176 59" version="1.1" xmlns="http://www.w3.org/2000/svg" xmlns:xlink="http://www.w3.org/1999/xlink">
<title>logo</title>
<desc>Created using Figma</desc>
<g id="Canvas" transform="translate(239 -13785)">
<g id="logo">
<g id="Vector">
<use xlink:href="#path0_fill" transform="translate(-239 13795.7)"/>
</g>
<g id="Vector">
<use xlink:href="#path1_fill" transform="translate(-211.218 13786.8)"/>
</g>
<g id="Vector">
<use xlink:href="#path2_fill" transform="translate(-238.989 13795.7)"/>
</g>
<g id="Vector">
<use xlink:href="#path3_fill" transform="translate(-211.218 13786.8)"/>
</g>
<g id="Vector">
<use xlink:href="#path4_fill" transform="translate(-150.576 13795.7)"/>
</g>
<g id="Vector">
<use xlink:href="#path5_fill" transform="translate(-110.581 13795.7)"/>
</g>
<g id="Vector">
<use xlink:href="#path6_fill" transform="translate(-82.4808 13787.1)"/>
</g>
<g id="Vector">
<use xlink:href="#path7_fill" transform="translate(-183.841 13795.6)"/>
</g>
<g id="Vector">
<use xlink:href="#path8_fill" transform="translate(-140.488 13795.6)"/>
</g>
<g id="Vector">
<use xlink:href="#path9_fill" transform="translate(-150.937 13785)"/>
</g>
</g>
</g>
<defs>
<path id="path0_fill" d="M 14.4274 4.51386e-06C 6.46222 -0.00285374 0.00285413 6.46315 9.16545e-07 14.4421C -0.0028523 22.4211 6.45176 28.8922 14.4167 28.8951C 22.3819 28.8979 28.8413 22.4319 28.8441 14.4529C 28.8441 14.451 28.8441 14.4494 28.8441 14.4475C 28.8441 6.47046 22.3905 0.00318036 14.4274 4.51386e-06Z"/>
<path id="path1_fill" d="M 7.54517 4.72965e-06C 3.37789 4.72965e-06 -5.61138e-07 3.38418 -5.61138e-07 7.55851C -5.61138e-07 11.7331 3.37789 15.117 7.54517 15.117C 11.7124 15.117 15.0903 11.7328 15.0903 7.55851C 15.0903 3.38418 11.7124 4.72965e-06 7.54517 4.72965e-06Z"/>
<path id="path2_fill" d="M 28.8333 14.4475C 28.8305 22.4237 22.3733 28.8875 14.4113 28.8843C 6.44922 28.8811 -0.00316907 22.4129 1.16772e-06 14.4367C 0.00285438 6.46283 6.45651 0 14.4167 0C 22.3787 0 28.8333 6.46601 28.8333 14.4421L 28.8333 14.4475Z"/>
<path id="path3_fill" d="M 15.0903 7.55851C 15.0903 11.7332 11.7124 15.117 7.54517 15.117C 3.37789 15.117 -5.61138e-07 11.7328 -5.61138e-07 7.55851C -5.61138e-07 3.38418 3.37789 4.1869e-06 7.54517 4.1869e-06C 11.7124 4.1869e-06 15.0903 3.38418 15.0903 7.55851Z"/>
<path id="path4_fill" d="M 1.26113 3.02387e-06L 3.64325 3.02387e-06C 4.33976 3.02387e-06 4.9047 0.56562 4.9047 1.26335L 4.9047 27.5939C 4.9047 28.2917 4.34007 28.8573 3.64325 28.8573L 1.26113 28.8573C 0.564621 28.8573 7.73987e-07 28.292 7.73987e-07 27.5939L 7.73987e-07 1.26335C 7.73987e-07 0.56562 0.564621 3.02387e-06 1.26113 3.02387e-06Z"/>
<path id="path5_fill" d="M 13.6999 4.10937e-06C 5.46486 0.091786 -4.7987e-06 6.73787 -4.7987e-06 14.4745C 0.0529382 22.525 6.61059 29.0085 14.6468 28.9554C 14.6798 28.9551 14.7124 28.9548 14.7457 28.9545C 19.4938 28.9545 23.1478 26.7139 24.5491 25.1371C 25.2012 24.4029 24.991 23.9547 24.4143 23.4257C 23.8377 22.8966 23.3365 22.4002 22.8511 21.9355C 22.3664 21.4712 22.0319 21.5252 21.4229 21.9841C 19.4485 23.4806 17.0324 24.2749 14.5568 24.2409C 9.0596 24.2409 5.08221 20.267 4.80735 15.6512L 24.953 15.6512C 25.6041 15.6363 26.1374 15.1297 26.1874 14.4796C 26.2699 13.8619 26.3165 13.2401 26.3276 12.617C 26.3219 5.43673 20.8355 0.091786 13.6999 4.10937e-06ZM 4.90976 11.7859C 5.31872 7.49372 8.92169 4.2191 13.2256 4.22736C 17.4236 4.22736 21.369 7.81226 21.5738 11.7859L 4.90976 11.7859Z"/>
<path id="path6_fill" d="M 19.2401 34.1428L 17.2517 32.1668C 16.8973 31.9013 16.4002 31.9458 16.0981 32.2694C 15.3223 32.8906 14.3538 33.2212 13.3603 33.2031C 12.284 33.2317 11.2448 32.809 10.4931 32.0369C 9.72082 31.1858 9.30236 30.0717 9.3236 28.9218C 9.32074 28.8519 9.30805 28.7827 9.28618 28.7166L 9.28618 12.59L 16.5454 12.59C 17.239 12.5928 17.8037 12.0323 17.8068 11.3374C 17.8068 11.3336 17.8068 11.3301 17.8068 11.3266L 17.8068 9.84765C 17.8189 9.17405 17.2841 8.61765 16.6113 8.60526C 16.5898 8.60495 16.5676 8.60527 16.5457 8.6059L 9.27002 8.6059L 9.27002 1.26335C 9.27921 0.586892 8.74851 0.026357 8.07388 -2.48113e-06L 5.95046 0.226759C 5.27742 0.280431 4.74259 0.815877 4.68933 1.49011L 4.68933 8.6059L 1.23949 8.6059C 0.567083 8.59383 0.0119749 9.13023 0.000245043 9.80382C -7.19805e-05 9.81843 -7.19805e-05 9.83305 0.000245043 9.84734L 0.000245043 11.3104C 0.000245043 12.0082 0.564537 12.5738 1.26136 12.5738L 4.68871 12.5738L 4.68871 29.1326L 4.72104 29.1326C 4.77113 30.6682 5.21084 32.1659 5.99833 33.4839C 6.72019 34.6399 7.65699 35.646 8.7577 36.4479L 8.83283 36.4965C 10.1995 37.2444 11.739 37.6169 13.2953 37.5762C 15.5008 37.6232 17.636 36.7991 19.2398 35.2814C 19.5552 34.9733 19.5619 34.4677 19.2544 34.1514C 19.2496 34.1463 19.2449 34.1416 19.2398 34.1368L 19.2398 34.1428L 19.2401 34.1428Z"/>
<path id="path7_fill" d="M 27.2454 0.0702131L 24.3567 0.0702131C 23.8618 0.0670372 23.4107 0.354455 23.2033 0.804472L 14.1599 22.2976L 5.26738 0.734283C 5.06004 0.283948 4.60892 -0.00315155 4.11404 2.42975e-05L 1.14987 2.42975e-05C 0.152826 2.42975e-05 -0.245987 0.664094 0.152829 1.52792L 0.627098 2.60771L 11.4652 27.5994C 11.7077 28.1824 12.1766 28.8627 12.8395 28.8627L 15.4803 28.8627C 16.1432 28.8627 16.6121 28.1824 16.8546 27.5994L 27.7735 2.6617L 28.2478 1.58192C 28.6358 0.734285 28.237 0.0702131 27.2454 0.0702131Z"/>
<path id="path8_fill" d="M 17.6779 28.9981L 8.03055 28.9981C 5.55174 28.9981 4.3442 27.2651 4.3442 25.586C 4.3442 22.8866 7.29221 21.5584 7.29221 21.5584C 9.37696 22.7621 11.7264 23.4315 14.1314 23.5074C 20.5739 23.6449 25.9075 18.5239 26.0448 12.0699C 26.0464 11.988 26.0473 11.9061 26.0473 11.8245C 26.0727 9.15358 25.0868 6.57225 23.288 4.60069L 26.9369 3.56409C 27.4004 3.4993 27.6749 2.89462 27.6749 2.42491L 27.6749 1.27462C 27.6962 0.592132 27.161 0.0217527 26.4798 0.000474593C 26.4541 -0.000160575 26.4287 -0.000160575 26.403 0.000474593L 13.652 0.000474593C 6.68352 0.000474593 2.33427 5.57218 2.33427 11.8187C 2.3498 14.2308 3.1021 16.5803 4.49003 18.5512C 4.49003 18.5512 0.000657995 21.1643 0.000657995 26.2717C -0.0418232 29.277 1.98427 31.9167 4.89455 32.6478L 4.89455 32.8476C 4.22087 33.2471 1.00879 35.0611 1.00879 39.0888C 1.00879 43.5213 4.89456 48.3533 13.8733 48.3533C 21.9574 48.3533 27.7456 43.0516 27.7456 37.4799C 27.7292 31.6274 23.3098 28.9981 17.6779 28.9981ZM 14.1263 4.34661C 18.1534 4.34376 21.4207 7.6117 21.4235 11.646C 21.4267 15.6802 18.1645 18.9533 14.1374 18.9561C 10.1102 18.9593 6.84298 15.6914 6.83981 11.6571C 6.83664 7.62282 10.0991 4.34947 14.1263 4.34661C 14.1279 4.34661 14.1298 4.34661 14.1317 4.34661L 14.1263 4.34661ZM 13.7868 43.9802C 9.22732 43.9802 5.74576 41.6316 5.74576 38.4085C 5.74576 34.4457 10.2351 33.2366 10.2351 33.2366L 17.6725 33.2366C 22.3613 33.2366 22.7655 36.7297 22.7655 37.6044C 22.7709 41.4913 18.2165 43.9802 13.7918 43.9802L 13.7868 43.9802Z"/>
<path id="path9_fill" d="M 2.79159 0.00047878C 1.23183 0.0185811 -0.0178762 1.29939 0.000194143 2.86191C 0.0182645 4.42442 1.29683 5.67634 2.85658 5.65824C 4.39066 5.64046 5.63022 4.39901 5.64798 2.86191C 5.67492 1.3086 4.43979 0.0274734 2.88954 0.00047878C 2.85689 -0.000156389 2.82424 -0.000156389 2.79159 0.00047878Z"/>
</defs>
</svg>
