<svg width="906" height="382" viewBox="0 0 906 382" version="1.1" xmlns="http://www.w3.org/2000/svg" xmlns:xlink="http://www.w3.org/1999/xlink">
<title>SHOP ONLINE</title>
<desc>Created using Figma</desc>
<g id="Canvas" transform="translate(691 -109)">
<g id="SHOP ONLINE">
<use xlink:href="#path0_fill" transform="translate(-733 47)"/>
</g>
</g>
<defs>
<path id="path0_fill" d="M 285.711 160.64C 273.711 149.12 259.551 141.68 245.151 133.76C 232.431 127.04 219.951 117.92 215.871 103.76C 212.271 92 215.151 75.92 226.191 69.92C 243.471 61.04 287.871 72.32 290.991 117.92L 294.351 117.92L 297.951 75.2C 297.951 75.2 255.951 54.8 219.951 67.76C 205.551 73.04 193.071 86.72 192.591 101.84C 191.871 121.76 204.351 140.72 222.111 150.8C 240.831 161.12 263.391 172.16 275.631 190.16C 286.431 206.24 280.431 234.32 261.471 240.8C 243.471 246.8 203.391 233.36 201.711 191.12L 198.351 191.12L 194.511 233.84C 194.511 233.84 249.471 258.8 287.631 236C 308.751 223.52 311.151 184.88 285.711 160.64ZM 484.524 69.68L 484.524 66.56L 423.324 66.56L 423.324 69.68C 432.684 69.68 442.044 71.84 442.044 86.96L 442.044 152.72L 361.884 152.72L 361.884 87.2C 361.884 71.84 371.004 69.68 380.364 69.68L 380.364 66.56L 318.684 66.56L 318.684 69.68C 326.124 69.68 337.404 72.56 337.404 87.44L 337.404 221.36C 337.404 236.24 326.124 238.88 318.684 238.88L 318.684 242L 380.364 242L 380.364 238.88C 371.004 238.88 361.884 236.72 361.884 221.6L 361.884 156.08L 442.044 156.08L 442.044 221.6C 442.044 236.72 433.164 238.88 423.804 238.88L 423.804 242L 485.004 242L 485.004 238.88C 477.804 238.88 466.524 236.24 466.524 221.36L 466.524 87.2C 466.524 72.32 477.324 69.68 484.524 69.68ZM 662.108 152C 662.108 201.68 624.188 242 580.747 242C 537.307 242 499.387 201.68 499.387 152C 499.387 102.32 537.307 62 580.747 62C 624.188 62 662.108 102.32 662.108 152ZM 631.868 150.8C 631.868 103.76 611.948 65.12 580.747 65.12C 549.787 65.12 529.628 103.76 529.628 150.8C 529.628 197.84 549.787 238.88 580.747 238.88C 611.948 238.88 631.868 197.84 631.868 150.8ZM 737.766 66.56L 666.966 66.56L 666.966 69.92C 673.926 69.92 688.086 70.16 688.086 87.2L 688.086 223.76L 716.166 242C 713.286 237.68 712.566 234.08 712.566 227.6L 712.566 170.96L 733.686 170.96C 744.726 170.96 797.526 170.48 797.526 117.44C 797.526 74 757.686 66.56 737.766 66.56ZM 733.926 168.08L 712.566 168.08L 712.566 93.2C 712.566 90.08 712.326 86.72 713.046 83.36C 714.246 78.08 717.846 72.56 723.126 70.88C 726.486 69.68 730.086 69.68 733.686 69.68C 767.766 69.68 768.486 94.16 768.486 118.4C 768.486 159.2 743.766 168.08 733.926 168.08ZM 205.662 354C 205.662 403.68 167.742 444 124.302 444C 80.8622 444 42.9422 403.68 42.9422 354C 42.9422 304.32 80.8622 264 124.302 264C 167.742 264 205.662 304.32 205.662 354ZM 175.422 352.8C 175.422 305.76 155.502 267.12 124.302 267.12C 93.3422 267.12 73.1822 305.76 73.1822 352.8C 73.1822 399.84 93.3422 440.88 124.302 440.88C 155.502 440.88 175.422 399.84 175.422 352.8ZM 322.84 268.56L 322.84 271.92C 334.36 271.92 352.6 279.12 352.6 306.72L 352.6 403.2L 253.48 268.56L 211.24 268.56L 211.24 272.64C 223.96 272.64 234.04 287.04 234.04 287.04L 239.8 295.2L 239.8 405.84C 239.8 433.44 222.04 440.64 210.52 440.64L 210.52 444L 272.2 444L 272.2 440.64C 261.4 440.64 242.92 432.72 242.92 405.6L 242.92 299.28L 347.32 444L 355.48 444L 355.48 306.96C 355.48 279.84 373.96 271.92 384.76 271.92L 384.76 268.56L 322.84 268.56ZM 529.992 391.92C 517.752 441.6 481.752 440.88 463.752 440.88C 455.112 440.88 446.232 436.56 446.232 423.84L 446.232 286.8L 416.472 268.56C 419.592 272.88 420.312 276.48 420.312 282.96L 420.312 423.6C 420.312 440.4 408.792 440.64 399.192 440.64L 399.192 444L 529.752 444L 535.032 391.92L 529.992 391.92ZM 591.907 423.6L 591.907 286.8L 563.827 268.56C 566.707 272.88 567.427 276.48 567.427 282.96L 567.427 423.6C 567.427 438.48 558.787 440.88 549.427 440.88L 549.427 444L 610.147 444L 610.147 440.88C 600.787 440.88 591.907 438.48 591.907 423.6ZM 736.981 268.56L 736.981 271.92C 748.501 271.92 766.741 279.12 766.741 306.72L 766.741 403.2L 667.621 268.56L 625.381 268.56L 625.381 272.64C 638.101 272.64 648.181 287.04 648.181 287.04L 653.941 295.2L 653.941 405.84C 653.941 433.44 636.181 440.64 624.661 440.64L 624.661 444L 686.341 444L 686.341 440.64C 675.541 440.64 657.061 432.72 657.061 405.6L 657.061 299.28L 761.461 444L 769.621 444L 769.621 306.96C 769.621 279.84 788.101 271.92 798.901 271.92L 798.901 268.56L 736.981 268.56ZM 943.653 444L 813.333 444L 813.333 440.88C 822.213 440.88 834.693 437.52 834.693 423.6L 834.693 288.96C 834.693 272.16 818.373 271.68 813.333 271.68L 813.333 268.56L 939.093 268.56L 942.213 312.72L 938.613 312.72C 933.813 287.76 915.333 271.68 888.933 271.68L 877.653 271.68C 865.173 271.68 859.653 278.64 859.653 288.24L 859.653 354L 870.453 354C 891.093 353.28 903.093 338.88 903.093 323.04L 906.933 323.04L 906.933 387.84L 903.093 387.84C 903.093 372 889.893 358.08 869.973 357.36L 859.653 357.36L 859.653 424.32C 859.653 440.16 877.173 440.88 877.653 440.88L 893.253 440.88C 926.373 440.88 941.253 418.8 943.173 394.8L 947.013 394.8L 943.653 444Z"/>
</defs>
</svg>
